<mxfile host="www.draw.io" modified="2020-02-16T05:38:40.006Z" agent="Mozilla/5.0 (Windows NT 10.0; Win64; x64) AppleWebKit/537.36 (KHTML, like Gecko) Chrome/75.0.3770.142 Safari/537.36" etag="RVLx3Nwtj3xHaHjrslGt" version="12.7.0" type="github">
  <diagram id="F9GoPBIL4Y2GwkQwNlgj" name="第 1 页">
    <mxGraphModel dx="1483" dy="783" grid="1" gridSize="10" guides="1" tooltips="1" connect="1" arrows="1" fold="1" page="1" pageScale="1" pageWidth="827" pageHeight="1169" math="0" shadow="0">
      <root>
        <mxCell id="0"/>
        <mxCell id="1" parent="0"/>
        <mxCell id="ZJF8en1MvVYXbwIb_WXR-1" value="" style="rounded=0;whiteSpace=wrap;html=1;" vertex="1" parent="1">
          <mxGeometry x="50" y="110" width="230" height="290" as="geometry"/>
        </mxCell>
        <mxCell id="ZJF8en1MvVYXbwIb_WXR-4" style="edgeStyle=orthogonalEdgeStyle;rounded=0;orthogonalLoop=1;jettySize=auto;html=1;entryX=0.5;entryY=0;entryDx=0;entryDy=0;" edge="1" parent="1" source="ZJF8en1MvVYXbwIb_WXR-2" target="ZJF8en1MvVYXbwIb_WXR-3">
          <mxGeometry relative="1" as="geometry"/>
        </mxCell>
        <mxCell id="ZJF8en1MvVYXbwIb_WXR-2" value="ProducerRecord" style="rounded=0;whiteSpace=wrap;html=1;" vertex="1" parent="1">
          <mxGeometry x="60" y="130" width="110" height="30" as="geometry"/>
        </mxCell>
        <mxCell id="ZJF8en1MvVYXbwIb_WXR-6" style="edgeStyle=orthogonalEdgeStyle;rounded=0;orthogonalLoop=1;jettySize=auto;html=1;entryX=0.5;entryY=0;entryDx=0;entryDy=0;" edge="1" parent="1" source="ZJF8en1MvVYXbwIb_WXR-3" target="ZJF8en1MvVYXbwIb_WXR-5">
          <mxGeometry relative="1" as="geometry"/>
        </mxCell>
        <mxCell id="ZJF8en1MvVYXbwIb_WXR-3" value="序列化组件" style="rounded=0;whiteSpace=wrap;html=1;" vertex="1" parent="1">
          <mxGeometry x="60" y="180" width="110" height="30" as="geometry"/>
        </mxCell>
        <mxCell id="ZJF8en1MvVYXbwIb_WXR-11" style="edgeStyle=orthogonalEdgeStyle;rounded=0;orthogonalLoop=1;jettySize=auto;html=1;entryX=0.5;entryY=0;entryDx=0;entryDy=0;" edge="1" parent="1" source="ZJF8en1MvVYXbwIb_WXR-5" target="ZJF8en1MvVYXbwIb_WXR-7">
          <mxGeometry relative="1" as="geometry">
            <Array as="points">
              <mxPoint x="115" y="270"/>
              <mxPoint x="165" y="270"/>
            </Array>
          </mxGeometry>
        </mxCell>
        <mxCell id="ZJF8en1MvVYXbwIb_WXR-5" value="partitioner" style="rounded=0;whiteSpace=wrap;html=1;" vertex="1" parent="1">
          <mxGeometry x="60" y="230" width="110" height="30" as="geometry"/>
        </mxCell>
        <mxCell id="ZJF8en1MvVYXbwIb_WXR-14" style="edgeStyle=orthogonalEdgeStyle;rounded=0;orthogonalLoop=1;jettySize=auto;html=1;exitX=0.5;exitY=1;exitDx=0;exitDy=0;entryX=0.5;entryY=0;entryDx=0;entryDy=0;" edge="1" parent="1" source="ZJF8en1MvVYXbwIb_WXR-7" target="ZJF8en1MvVYXbwIb_WXR-13">
          <mxGeometry relative="1" as="geometry">
            <Array as="points">
              <mxPoint x="165" y="320"/>
              <mxPoint x="115" y="320"/>
            </Array>
          </mxGeometry>
        </mxCell>
        <mxCell id="ZJF8en1MvVYXbwIb_WXR-7" value="缓冲区" style="rounded=0;whiteSpace=wrap;html=1;" vertex="1" parent="1">
          <mxGeometry x="60" y="280" width="210" height="30" as="geometry"/>
        </mxCell>
        <mxCell id="ZJF8en1MvVYXbwIb_WXR-9" style="edgeStyle=orthogonalEdgeStyle;rounded=0;orthogonalLoop=1;jettySize=auto;html=1;entryX=1;entryY=0.5;entryDx=0;entryDy=0;" edge="1" parent="1" source="ZJF8en1MvVYXbwIb_WXR-8" target="ZJF8en1MvVYXbwIb_WXR-5">
          <mxGeometry relative="1" as="geometry">
            <Array as="points">
              <mxPoint x="220" y="245"/>
            </Array>
          </mxGeometry>
        </mxCell>
        <mxCell id="ZJF8en1MvVYXbwIb_WXR-8" value="Metadata元数据&lt;br&gt;topic-&amp;gt;&lt;br&gt;分区-&amp;gt;&lt;br&gt;broker" style="rounded=0;whiteSpace=wrap;html=1;" vertex="1" parent="1">
          <mxGeometry x="180" y="160" width="90" height="60" as="geometry"/>
        </mxCell>
        <mxCell id="ZJF8en1MvVYXbwIb_WXR-17" style="edgeStyle=orthogonalEdgeStyle;rounded=0;orthogonalLoop=1;jettySize=auto;html=1;exitX=1;exitY=0.25;exitDx=0;exitDy=0;entryX=0;entryY=0.5;entryDx=0;entryDy=0;" edge="1" parent="1" source="ZJF8en1MvVYXbwIb_WXR-13" target="ZJF8en1MvVYXbwIb_WXR-15">
          <mxGeometry relative="1" as="geometry"/>
        </mxCell>
        <mxCell id="ZJF8en1MvVYXbwIb_WXR-18" style="edgeStyle=orthogonalEdgeStyle;rounded=0;orthogonalLoop=1;jettySize=auto;html=1;exitX=1;exitY=0.75;exitDx=0;exitDy=0;entryX=0;entryY=0.5;entryDx=0;entryDy=0;" edge="1" parent="1" source="ZJF8en1MvVYXbwIb_WXR-13" target="ZJF8en1MvVYXbwIb_WXR-16">
          <mxGeometry relative="1" as="geometry"/>
        </mxCell>
        <mxCell id="ZJF8en1MvVYXbwIb_WXR-26" style="edgeStyle=orthogonalEdgeStyle;rounded=0;orthogonalLoop=1;jettySize=auto;html=1;entryX=0.5;entryY=0;entryDx=0;entryDy=0;" edge="1" parent="1" source="ZJF8en1MvVYXbwIb_WXR-13" target="ZJF8en1MvVYXbwIb_WXR-22">
          <mxGeometry relative="1" as="geometry"/>
        </mxCell>
        <mxCell id="ZJF8en1MvVYXbwIb_WXR-13" value="Sender线程" style="rounded=0;whiteSpace=wrap;html=1;" vertex="1" parent="1">
          <mxGeometry x="60" y="340" width="110" height="30" as="geometry"/>
        </mxCell>
        <mxCell id="ZJF8en1MvVYXbwIb_WXR-15" value="batch" style="rounded=0;whiteSpace=wrap;html=1;" vertex="1" parent="1">
          <mxGeometry x="210" y="320" width="50" height="30" as="geometry"/>
        </mxCell>
        <mxCell id="ZJF8en1MvVYXbwIb_WXR-16" value="batch" style="rounded=0;whiteSpace=wrap;html=1;" vertex="1" parent="1">
          <mxGeometry x="210" y="360" width="50" height="30" as="geometry"/>
        </mxCell>
        <mxCell id="ZJF8en1MvVYXbwIb_WXR-20" style="edgeStyle=orthogonalEdgeStyle;rounded=0;orthogonalLoop=1;jettySize=auto;html=1;entryX=1;entryY=0.5;entryDx=0;entryDy=0;" edge="1" parent="1" source="ZJF8en1MvVYXbwIb_WXR-19" target="ZJF8en1MvVYXbwIb_WXR-8">
          <mxGeometry relative="1" as="geometry"/>
        </mxCell>
        <mxCell id="ZJF8en1MvVYXbwIb_WXR-21" value="拉取元数据" style="text;html=1;align=center;verticalAlign=middle;resizable=0;points=[];labelBackgroundColor=#ffffff;" vertex="1" connectable="0" parent="ZJF8en1MvVYXbwIb_WXR-20">
          <mxGeometry x="0.1822" y="2" relative="1" as="geometry">
            <mxPoint as="offset"/>
          </mxGeometry>
        </mxCell>
        <mxCell id="ZJF8en1MvVYXbwIb_WXR-77" style="edgeStyle=orthogonalEdgeStyle;rounded=0;orthogonalLoop=1;jettySize=auto;html=1;entryX=0.5;entryY=0;entryDx=0;entryDy=0;" edge="1" parent="1" source="ZJF8en1MvVYXbwIb_WXR-19" target="ZJF8en1MvVYXbwIb_WXR-71">
          <mxGeometry relative="1" as="geometry"/>
        </mxCell>
        <mxCell id="ZJF8en1MvVYXbwIb_WXR-78" value="写入内存" style="text;html=1;align=center;verticalAlign=middle;resizable=0;points=[];labelBackgroundColor=#ffffff;" vertex="1" connectable="0" parent="ZJF8en1MvVYXbwIb_WXR-77">
          <mxGeometry x="-0.2357" relative="1" as="geometry">
            <mxPoint as="offset"/>
          </mxGeometry>
        </mxCell>
        <mxCell id="ZJF8en1MvVYXbwIb_WXR-88" style="edgeStyle=orthogonalEdgeStyle;rounded=0;orthogonalLoop=1;jettySize=auto;html=1;exitX=0.25;exitY=0;exitDx=0;exitDy=0;entryX=1;entryY=0.5;entryDx=0;entryDy=0;" edge="1" parent="1" source="ZJF8en1MvVYXbwIb_WXR-19" target="ZJF8en1MvVYXbwIb_WXR-85">
          <mxGeometry relative="1" as="geometry"/>
        </mxCell>
        <mxCell id="ZJF8en1MvVYXbwIb_WXR-94" style="edgeStyle=orthogonalEdgeStyle;rounded=0;orthogonalLoop=1;jettySize=auto;html=1;entryX=0;entryY=0.5;entryDx=0;entryDy=0;" edge="1" parent="1" source="ZJF8en1MvVYXbwIb_WXR-19" target="ZJF8en1MvVYXbwIb_WXR-92">
          <mxGeometry relative="1" as="geometry">
            <Array as="points">
              <mxPoint x="720" y="120"/>
            </Array>
          </mxGeometry>
        </mxCell>
        <mxCell id="ZJF8en1MvVYXbwIb_WXR-95" value="消费offset" style="text;html=1;align=center;verticalAlign=middle;resizable=0;points=[];labelBackgroundColor=#ffffff;" vertex="1" connectable="0" parent="ZJF8en1MvVYXbwIb_WXR-94">
          <mxGeometry x="-0.0033" y="-1" relative="1" as="geometry">
            <mxPoint as="offset"/>
          </mxGeometry>
        </mxCell>
        <mxCell id="ZJF8en1MvVYXbwIb_WXR-19" value="Kafka Broker&lt;br&gt;（应用进程）&lt;br&gt;Controller" style="rounded=0;whiteSpace=wrap;html=1;" vertex="1" parent="1">
          <mxGeometry x="660" y="160" width="120" height="60" as="geometry"/>
        </mxCell>
        <mxCell id="ZJF8en1MvVYXbwIb_WXR-27" style="edgeStyle=orthogonalEdgeStyle;rounded=0;orthogonalLoop=1;jettySize=auto;html=1;exitX=1;exitY=0.25;exitDx=0;exitDy=0;entryX=0;entryY=0.5;entryDx=0;entryDy=0;" edge="1" parent="1" source="ZJF8en1MvVYXbwIb_WXR-22" target="ZJF8en1MvVYXbwIb_WXR-23">
          <mxGeometry relative="1" as="geometry"/>
        </mxCell>
        <mxCell id="ZJF8en1MvVYXbwIb_WXR-28" style="edgeStyle=orthogonalEdgeStyle;rounded=0;orthogonalLoop=1;jettySize=auto;html=1;entryX=0;entryY=0.5;entryDx=0;entryDy=0;" edge="1" parent="1" source="ZJF8en1MvVYXbwIb_WXR-22" target="ZJF8en1MvVYXbwIb_WXR-24">
          <mxGeometry relative="1" as="geometry"/>
        </mxCell>
        <mxCell id="ZJF8en1MvVYXbwIb_WXR-29" style="edgeStyle=orthogonalEdgeStyle;rounded=0;orthogonalLoop=1;jettySize=auto;html=1;exitX=1;exitY=0.75;exitDx=0;exitDy=0;entryX=0;entryY=0.5;entryDx=0;entryDy=0;" edge="1" parent="1" source="ZJF8en1MvVYXbwIb_WXR-22" target="ZJF8en1MvVYXbwIb_WXR-25">
          <mxGeometry relative="1" as="geometry"/>
        </mxCell>
        <mxCell id="ZJF8en1MvVYXbwIb_WXR-22" value="acceptor" style="rounded=0;whiteSpace=wrap;html=1;" vertex="1" parent="1">
          <mxGeometry x="65" y="470" width="100" height="30" as="geometry"/>
        </mxCell>
        <mxCell id="ZJF8en1MvVYXbwIb_WXR-23" value="processor" style="rounded=0;whiteSpace=wrap;html=1;" vertex="1" parent="1">
          <mxGeometry x="220" y="430" width="100" height="30" as="geometry"/>
        </mxCell>
        <mxCell id="ZJF8en1MvVYXbwIb_WXR-33" style="edgeStyle=orthogonalEdgeStyle;rounded=0;orthogonalLoop=1;jettySize=auto;html=1;entryX=0;entryY=0.5;entryDx=0;entryDy=0;" edge="1" parent="1" source="ZJF8en1MvVYXbwIb_WXR-24" target="ZJF8en1MvVYXbwIb_WXR-32">
          <mxGeometry relative="1" as="geometry">
            <Array as="points">
              <mxPoint x="330" y="475"/>
              <mxPoint x="330" y="475"/>
            </Array>
          </mxGeometry>
        </mxCell>
        <mxCell id="ZJF8en1MvVYXbwIb_WXR-24" value="processor" style="rounded=0;whiteSpace=wrap;html=1;" vertex="1" parent="1">
          <mxGeometry x="220" y="470" width="100" height="30" as="geometry"/>
        </mxCell>
        <mxCell id="ZJF8en1MvVYXbwIb_WXR-25" value="processor" style="rounded=0;whiteSpace=wrap;html=1;" vertex="1" parent="1">
          <mxGeometry x="220" y="510" width="100" height="30" as="geometry"/>
        </mxCell>
        <mxCell id="ZJF8en1MvVYXbwIb_WXR-30" value="socket" style="rounded=0;whiteSpace=wrap;html=1;" vertex="1" parent="1">
          <mxGeometry x="200" y="420" width="40" height="20" as="geometry"/>
        </mxCell>
        <mxCell id="ZJF8en1MvVYXbwIb_WXR-31" value="socket" style="rounded=0;whiteSpace=wrap;html=1;" vertex="1" parent="1">
          <mxGeometry x="200" y="450" width="40" height="20" as="geometry"/>
        </mxCell>
        <mxCell id="ZJF8en1MvVYXbwIb_WXR-35" style="edgeStyle=orthogonalEdgeStyle;rounded=0;orthogonalLoop=1;jettySize=auto;html=1;entryX=-0.009;entryY=0.353;entryDx=0;entryDy=0;entryPerimeter=0;" edge="1" parent="1" source="ZJF8en1MvVYXbwIb_WXR-32" target="ZJF8en1MvVYXbwIb_WXR-34">
          <mxGeometry relative="1" as="geometry">
            <Array as="points">
              <mxPoint x="520" y="476"/>
            </Array>
          </mxGeometry>
        </mxCell>
        <mxCell id="ZJF8en1MvVYXbwIb_WXR-32" value="请求队列" style="rounded=0;whiteSpace=wrap;html=1;" vertex="1" parent="1">
          <mxGeometry x="363" y="470" width="97" height="10" as="geometry"/>
        </mxCell>
        <mxCell id="ZJF8en1MvVYXbwIb_WXR-40" style="edgeStyle=orthogonalEdgeStyle;rounded=0;orthogonalLoop=1;jettySize=auto;html=1;entryX=1;entryY=0.5;entryDx=0;entryDy=0;" edge="1" parent="1" source="ZJF8en1MvVYXbwIb_WXR-34" target="ZJF8en1MvVYXbwIb_WXR-36">
          <mxGeometry relative="1" as="geometry">
            <Array as="points">
              <mxPoint x="545" y="445"/>
            </Array>
          </mxGeometry>
        </mxCell>
        <mxCell id="ZJF8en1MvVYXbwIb_WXR-43" style="edgeStyle=orthogonalEdgeStyle;rounded=0;orthogonalLoop=1;jettySize=auto;html=1;entryX=1;entryY=0.5;entryDx=0;entryDy=0;" edge="1" parent="1" source="ZJF8en1MvVYXbwIb_WXR-34" target="ZJF8en1MvVYXbwIb_WXR-42">
          <mxGeometry relative="1" as="geometry">
            <Array as="points">
              <mxPoint x="545" y="525"/>
            </Array>
          </mxGeometry>
        </mxCell>
        <mxCell id="ZJF8en1MvVYXbwIb_WXR-48" style="edgeStyle=orthogonalEdgeStyle;rounded=0;orthogonalLoop=1;jettySize=auto;html=1;exitX=0;exitY=0.75;exitDx=0;exitDy=0;entryX=1;entryY=0.5;entryDx=0;entryDy=0;" edge="1" parent="1" source="ZJF8en1MvVYXbwIb_WXR-34" target="ZJF8en1MvVYXbwIb_WXR-45">
          <mxGeometry relative="1" as="geometry">
            <Array as="points">
              <mxPoint x="520" y="495"/>
            </Array>
          </mxGeometry>
        </mxCell>
        <mxCell id="ZJF8en1MvVYXbwIb_WXR-54" style="edgeStyle=orthogonalEdgeStyle;rounded=0;orthogonalLoop=1;jettySize=auto;html=1;exitX=0.75;exitY=1;exitDx=0;exitDy=0;entryX=0;entryY=0.5;entryDx=0;entryDy=0;" edge="1" parent="1" source="ZJF8en1MvVYXbwIb_WXR-34" target="ZJF8en1MvVYXbwIb_WXR-51">
          <mxGeometry relative="1" as="geometry"/>
        </mxCell>
        <mxCell id="ZJF8en1MvVYXbwIb_WXR-55" value="写入内存" style="text;html=1;align=center;verticalAlign=middle;resizable=0;points=[];labelBackgroundColor=#ffffff;" vertex="1" connectable="0" parent="ZJF8en1MvVYXbwIb_WXR-54">
          <mxGeometry x="-0.371" y="1" relative="1" as="geometry">
            <mxPoint as="offset"/>
          </mxGeometry>
        </mxCell>
        <mxCell id="ZJF8en1MvVYXbwIb_WXR-34" value="Handler线程池" style="rounded=0;whiteSpace=wrap;html=1;" vertex="1" parent="1">
          <mxGeometry x="520" y="455" width="50" height="60" as="geometry"/>
        </mxCell>
        <mxCell id="ZJF8en1MvVYXbwIb_WXR-41" style="edgeStyle=orthogonalEdgeStyle;rounded=0;orthogonalLoop=1;jettySize=auto;html=1;entryX=1;entryY=0.5;entryDx=0;entryDy=0;" edge="1" parent="1" source="ZJF8en1MvVYXbwIb_WXR-36" target="ZJF8en1MvVYXbwIb_WXR-23">
          <mxGeometry relative="1" as="geometry"/>
        </mxCell>
        <mxCell id="ZJF8en1MvVYXbwIb_WXR-36" value="响应队列" style="rounded=0;whiteSpace=wrap;html=1;" vertex="1" parent="1">
          <mxGeometry x="363" y="430" width="100" height="30" as="geometry"/>
        </mxCell>
        <mxCell id="ZJF8en1MvVYXbwIb_WXR-44" style="edgeStyle=orthogonalEdgeStyle;rounded=0;orthogonalLoop=1;jettySize=auto;html=1;entryX=1;entryY=0.5;entryDx=0;entryDy=0;" edge="1" parent="1" source="ZJF8en1MvVYXbwIb_WXR-42" target="ZJF8en1MvVYXbwIb_WXR-25">
          <mxGeometry relative="1" as="geometry"/>
        </mxCell>
        <mxCell id="ZJF8en1MvVYXbwIb_WXR-42" value="响应队列" style="rounded=0;whiteSpace=wrap;html=1;" vertex="1" parent="1">
          <mxGeometry x="363" y="510" width="100" height="30" as="geometry"/>
        </mxCell>
        <mxCell id="ZJF8en1MvVYXbwIb_WXR-47" style="edgeStyle=orthogonalEdgeStyle;rounded=0;orthogonalLoop=1;jettySize=auto;html=1;entryX=1;entryY=0.833;entryDx=0;entryDy=0;entryPerimeter=0;" edge="1" parent="1" source="ZJF8en1MvVYXbwIb_WXR-45" target="ZJF8en1MvVYXbwIb_WXR-24">
          <mxGeometry relative="1" as="geometry"/>
        </mxCell>
        <mxCell id="ZJF8en1MvVYXbwIb_WXR-45" value="响应队列" style="rounded=0;whiteSpace=wrap;html=1;" vertex="1" parent="1">
          <mxGeometry x="364.5" y="490" width="97" height="10" as="geometry"/>
        </mxCell>
        <mxCell id="ZJF8en1MvVYXbwIb_WXR-50" style="edgeStyle=orthogonalEdgeStyle;rounded=0;orthogonalLoop=1;jettySize=auto;html=1;entryX=1;entryY=0.5;entryDx=0;entryDy=0;" edge="1" parent="1" source="ZJF8en1MvVYXbwIb_WXR-49" target="ZJF8en1MvVYXbwIb_WXR-34">
          <mxGeometry relative="1" as="geometry"/>
        </mxCell>
        <mxCell id="ZJF8en1MvVYXbwIb_WXR-52" style="edgeStyle=orthogonalEdgeStyle;rounded=0;orthogonalLoop=1;jettySize=auto;html=1;entryX=0.5;entryY=0;entryDx=0;entryDy=0;" edge="1" parent="1" source="ZJF8en1MvVYXbwIb_WXR-49" target="ZJF8en1MvVYXbwIb_WXR-51">
          <mxGeometry relative="1" as="geometry"/>
        </mxCell>
        <mxCell id="ZJF8en1MvVYXbwIb_WXR-53" value="写入内存" style="text;html=1;align=center;verticalAlign=middle;resizable=0;points=[];labelBackgroundColor=#ffffff;" vertex="1" connectable="0" parent="ZJF8en1MvVYXbwIb_WXR-52">
          <mxGeometry x="-0.2535" y="1" relative="1" as="geometry">
            <mxPoint as="offset"/>
          </mxGeometry>
        </mxCell>
        <mxCell id="ZJF8en1MvVYXbwIb_WXR-49" value="Kafka Broker&lt;br&gt;（应用进程）&lt;br&gt;Coordinator" style="rounded=0;whiteSpace=wrap;html=1;" vertex="1" parent="1">
          <mxGeometry x="660" y="452.5" width="120" height="65" as="geometry"/>
        </mxCell>
        <mxCell id="ZJF8en1MvVYXbwIb_WXR-61" style="edgeStyle=orthogonalEdgeStyle;rounded=0;orthogonalLoop=1;jettySize=auto;html=1;entryX=0.5;entryY=0;entryDx=0;entryDy=0;" edge="1" parent="1" source="ZJF8en1MvVYXbwIb_WXR-51" target="ZJF8en1MvVYXbwIb_WXR-58">
          <mxGeometry relative="1" as="geometry"/>
        </mxCell>
        <mxCell id="ZJF8en1MvVYXbwIb_WXR-62" value="每隔一段时间fsync到磁盘" style="text;html=1;align=center;verticalAlign=middle;resizable=0;points=[];labelBackgroundColor=#ffffff;" vertex="1" connectable="0" parent="ZJF8en1MvVYXbwIb_WXR-61">
          <mxGeometry x="-0.2309" relative="1" as="geometry">
            <mxPoint as="offset"/>
          </mxGeometry>
        </mxCell>
        <mxCell id="ZJF8en1MvVYXbwIb_WXR-51" value="os cache&lt;br&gt;其实是Page Cache" style="rounded=0;whiteSpace=wrap;html=1;" vertex="1" parent="1">
          <mxGeometry x="660" y="580" width="120" height="37" as="geometry"/>
        </mxCell>
        <mxCell id="ZJF8en1MvVYXbwIb_WXR-56" value="1" style="rounded=0;whiteSpace=wrap;html=1;" vertex="1" parent="1">
          <mxGeometry x="695" y="670" width="10" height="20" as="geometry"/>
        </mxCell>
        <mxCell id="ZJF8en1MvVYXbwIb_WXR-57" value="2" style="rounded=0;whiteSpace=wrap;html=1;" vertex="1" parent="1">
          <mxGeometry x="705" y="670" width="10" height="20" as="geometry"/>
        </mxCell>
        <mxCell id="ZJF8en1MvVYXbwIb_WXR-58" value="3" style="rounded=0;whiteSpace=wrap;html=1;" vertex="1" parent="1">
          <mxGeometry x="715" y="670" width="10" height="20" as="geometry"/>
        </mxCell>
        <mxCell id="ZJF8en1MvVYXbwIb_WXR-59" value="4" style="rounded=0;whiteSpace=wrap;html=1;" vertex="1" parent="1">
          <mxGeometry x="725" y="670" width="10" height="20" as="geometry"/>
        </mxCell>
        <mxCell id="ZJF8en1MvVYXbwIb_WXR-149" style="edgeStyle=orthogonalEdgeStyle;rounded=0;orthogonalLoop=1;jettySize=auto;html=1;exitX=1;exitY=0.75;exitDx=0;exitDy=0;entryX=1;entryY=0.5;entryDx=0;entryDy=0;" edge="1" parent="1" source="ZJF8en1MvVYXbwIb_WXR-60" target="ZJF8en1MvVYXbwIb_WXR-143">
          <mxGeometry relative="1" as="geometry">
            <mxPoint x="860" y="680" as="targetPoint"/>
            <Array as="points">
              <mxPoint x="745" y="680"/>
              <mxPoint x="910" y="680"/>
              <mxPoint x="910" y="410"/>
            </Array>
          </mxGeometry>
        </mxCell>
        <mxCell id="ZJF8en1MvVYXbwIb_WXR-150" value="同步数据" style="text;html=1;align=center;verticalAlign=middle;resizable=0;points=[];labelBackgroundColor=#ffffff;" vertex="1" connectable="0" parent="ZJF8en1MvVYXbwIb_WXR-149">
          <mxGeometry x="-0.5464" relative="1" as="geometry">
            <mxPoint as="offset"/>
          </mxGeometry>
        </mxCell>
        <mxCell id="ZJF8en1MvVYXbwIb_WXR-60" value="5" style="rounded=0;whiteSpace=wrap;html=1;" vertex="1" parent="1">
          <mxGeometry x="735" y="670" width="10" height="20" as="geometry"/>
        </mxCell>
        <mxCell id="ZJF8en1MvVYXbwIb_WXR-65" style="edgeStyle=orthogonalEdgeStyle;rounded=0;orthogonalLoop=1;jettySize=auto;html=1;entryX=0.5;entryY=1;entryDx=0;entryDy=0;" edge="1" parent="1" source="ZJF8en1MvVYXbwIb_WXR-63" target="ZJF8en1MvVYXbwIb_WXR-58">
          <mxGeometry relative="1" as="geometry">
            <Array as="points">
              <mxPoint x="690" y="730"/>
              <mxPoint x="720" y="730"/>
            </Array>
          </mxGeometry>
        </mxCell>
        <mxCell id="ZJF8en1MvVYXbwIb_WXR-63" value="HW" style="rounded=0;whiteSpace=wrap;html=1;" vertex="1" parent="1">
          <mxGeometry x="675" y="740" width="30" height="20" as="geometry"/>
        </mxCell>
        <mxCell id="ZJF8en1MvVYXbwIb_WXR-68" style="edgeStyle=orthogonalEdgeStyle;rounded=0;orthogonalLoop=1;jettySize=auto;html=1;entryX=0.5;entryY=1;entryDx=0;entryDy=0;" edge="1" parent="1" source="ZJF8en1MvVYXbwIb_WXR-66" target="ZJF8en1MvVYXbwIb_WXR-60">
          <mxGeometry relative="1" as="geometry"/>
        </mxCell>
        <mxCell id="ZJF8en1MvVYXbwIb_WXR-66" value="LEO" style="rounded=0;whiteSpace=wrap;html=1;" vertex="1" parent="1">
          <mxGeometry x="725" y="740" width="30" height="20" as="geometry"/>
        </mxCell>
        <mxCell id="ZJF8en1MvVYXbwIb_WXR-69" style="edgeStyle=orthogonalEdgeStyle;rounded=0;orthogonalLoop=1;jettySize=auto;html=1;entryX=0.5;entryY=0;entryDx=0;entryDy=0;" edge="1" parent="1" source="ZJF8en1MvVYXbwIb_WXR-71" target="ZJF8en1MvVYXbwIb_WXR-74">
          <mxGeometry relative="1" as="geometry"/>
        </mxCell>
        <mxCell id="ZJF8en1MvVYXbwIb_WXR-70" value="每隔一段时间fsync到磁盘" style="text;html=1;align=center;verticalAlign=middle;resizable=0;points=[];labelBackgroundColor=#ffffff;" vertex="1" connectable="0" parent="ZJF8en1MvVYXbwIb_WXR-69">
          <mxGeometry x="-0.2309" relative="1" as="geometry">
            <mxPoint as="offset"/>
          </mxGeometry>
        </mxCell>
        <mxCell id="ZJF8en1MvVYXbwIb_WXR-90" style="edgeStyle=orthogonalEdgeStyle;rounded=0;orthogonalLoop=1;jettySize=auto;html=1;exitX=0.75;exitY=0;exitDx=0;exitDy=0;entryX=0;entryY=0.5;entryDx=0;entryDy=0;" edge="1" parent="1" source="ZJF8en1MvVYXbwIb_WXR-71" target="ZJF8en1MvVYXbwIb_WXR-89">
          <mxGeometry relative="1" as="geometry"/>
        </mxCell>
        <mxCell id="ZJF8en1MvVYXbwIb_WXR-91" value="直接发送数据" style="text;html=1;align=center;verticalAlign=middle;resizable=0;points=[];labelBackgroundColor=#ffffff;" vertex="1" connectable="0" parent="ZJF8en1MvVYXbwIb_WXR-90">
          <mxGeometry x="-0.0282" y="-1" relative="1" as="geometry">
            <mxPoint as="offset"/>
          </mxGeometry>
        </mxCell>
        <mxCell id="ZJF8en1MvVYXbwIb_WXR-71" value="os cache&lt;br&gt;其实是Page Cache" style="rounded=0;whiteSpace=wrap;html=1;" vertex="1" parent="1">
          <mxGeometry x="660" y="260" width="120" height="37" as="geometry"/>
        </mxCell>
        <mxCell id="ZJF8en1MvVYXbwIb_WXR-72" value="1" style="rounded=0;whiteSpace=wrap;html=1;" vertex="1" parent="1">
          <mxGeometry x="695" y="350" width="10" height="20" as="geometry"/>
        </mxCell>
        <mxCell id="ZJF8en1MvVYXbwIb_WXR-73" value="2" style="rounded=0;whiteSpace=wrap;html=1;" vertex="1" parent="1">
          <mxGeometry x="705" y="350" width="10" height="20" as="geometry"/>
        </mxCell>
        <mxCell id="ZJF8en1MvVYXbwIb_WXR-74" value="3" style="rounded=0;whiteSpace=wrap;html=1;" vertex="1" parent="1">
          <mxGeometry x="715" y="350" width="10" height="20" as="geometry"/>
        </mxCell>
        <mxCell id="ZJF8en1MvVYXbwIb_WXR-75" value="4" style="rounded=0;whiteSpace=wrap;html=1;" vertex="1" parent="1">
          <mxGeometry x="725" y="350" width="10" height="20" as="geometry"/>
        </mxCell>
        <mxCell id="ZJF8en1MvVYXbwIb_WXR-79" style="edgeStyle=orthogonalEdgeStyle;rounded=0;orthogonalLoop=1;jettySize=auto;html=1;entryX=1;entryY=0.5;entryDx=0;entryDy=0;" edge="1" parent="1" source="ZJF8en1MvVYXbwIb_WXR-76" target="ZJF8en1MvVYXbwIb_WXR-71">
          <mxGeometry relative="1" as="geometry">
            <Array as="points">
              <mxPoint x="820" y="360"/>
              <mxPoint x="820" y="279"/>
            </Array>
          </mxGeometry>
        </mxCell>
        <mxCell id="ZJF8en1MvVYXbwIb_WXR-80" value="磁盘读" style="text;html=1;align=center;verticalAlign=middle;resizable=0;points=[];labelBackgroundColor=#ffffff;" vertex="1" connectable="0" parent="ZJF8en1MvVYXbwIb_WXR-79">
          <mxGeometry x="-0.2366" y="30" relative="1" as="geometry">
            <mxPoint x="32" y="-30" as="offset"/>
          </mxGeometry>
        </mxCell>
        <mxCell id="ZJF8en1MvVYXbwIb_WXR-76" value="5" style="rounded=0;whiteSpace=wrap;html=1;" vertex="1" parent="1">
          <mxGeometry x="735" y="350" width="10" height="20" as="geometry"/>
        </mxCell>
        <mxCell id="ZJF8en1MvVYXbwIb_WXR-81" value="partition0&lt;br&gt;leader&lt;br&gt;ISR列表" style="text;html=1;strokeColor=none;fillColor=none;align=center;verticalAlign=middle;whiteSpace=wrap;rounded=0;" vertex="1" parent="1">
          <mxGeometry x="570" y="335" width="100" height="50" as="geometry"/>
        </mxCell>
        <mxCell id="ZJF8en1MvVYXbwIb_WXR-82" value="partition1&lt;br&gt;leader&lt;br&gt;ISR列表" style="text;html=1;strokeColor=none;fillColor=none;align=center;verticalAlign=middle;whiteSpace=wrap;rounded=0;" vertex="1" parent="1">
          <mxGeometry x="570" y="655" width="100" height="50" as="geometry"/>
        </mxCell>
        <mxCell id="ZJF8en1MvVYXbwIb_WXR-83" value="leader epoch&lt;br&gt;&amp;lt;0, 0&amp;gt;" style="rounded=0;whiteSpace=wrap;html=1;" vertex="1" parent="1">
          <mxGeometry x="420" y="660" width="100" height="40" as="geometry"/>
        </mxCell>
        <mxCell id="ZJF8en1MvVYXbwIb_WXR-84" value="Follower LEO：1" style="rounded=0;whiteSpace=wrap;html=1;" vertex="1" parent="1">
          <mxGeometry x="470" y="720" width="100" height="40" as="geometry"/>
        </mxCell>
        <mxCell id="ZJF8en1MvVYXbwIb_WXR-85" value="zookeeper集群" style="rounded=0;whiteSpace=wrap;html=1;" vertex="1" parent="1">
          <mxGeometry x="485" y="90" width="120" height="60" as="geometry"/>
        </mxCell>
        <mxCell id="ZJF8en1MvVYXbwIb_WXR-87" style="edgeStyle=orthogonalEdgeStyle;rounded=0;orthogonalLoop=1;jettySize=auto;html=1;exitX=0.5;exitY=1;exitDx=0;exitDy=0;entryX=0.5;entryY=0;entryDx=0;entryDy=0;" edge="1" parent="1" source="ZJF8en1MvVYXbwIb_WXR-86" target="ZJF8en1MvVYXbwIb_WXR-85">
          <mxGeometry relative="1" as="geometry"/>
        </mxCell>
        <mxCell id="ZJF8en1MvVYXbwIb_WXR-86" value="Kafka Broker&lt;br&gt;（应用进程）&lt;br&gt;" style="rounded=0;whiteSpace=wrap;html=1;" vertex="1" parent="1">
          <mxGeometry x="487.5" y="10" width="115" height="50" as="geometry"/>
        </mxCell>
        <mxCell id="ZJF8en1MvVYXbwIb_WXR-93" style="edgeStyle=orthogonalEdgeStyle;rounded=0;orthogonalLoop=1;jettySize=auto;html=1;entryX=0.5;entryY=1;entryDx=0;entryDy=0;" edge="1" parent="1" source="ZJF8en1MvVYXbwIb_WXR-89" target="ZJF8en1MvVYXbwIb_WXR-92">
          <mxGeometry relative="1" as="geometry"/>
        </mxCell>
        <mxCell id="ZJF8en1MvVYXbwIb_WXR-89" value="网卡" style="rounded=0;whiteSpace=wrap;html=1;" vertex="1" parent="1">
          <mxGeometry x="900" y="220" width="100" height="40" as="geometry"/>
        </mxCell>
        <mxCell id="ZJF8en1MvVYXbwIb_WXR-92" value="系统" style="ellipse;whiteSpace=wrap;html=1;aspect=fixed;" vertex="1" parent="1">
          <mxGeometry x="920" y="90" width="60" height="60" as="geometry"/>
        </mxCell>
        <mxCell id="ZJF8en1MvVYXbwIb_WXR-97" value="会员系统&lt;br&gt;&lt;br&gt;&lt;br&gt;&lt;br&gt;&lt;br&gt;&lt;br&gt;&lt;br&gt;&lt;br&gt;&lt;br&gt;" style="rounded=0;whiteSpace=wrap;html=1;" vertex="1" parent="1">
          <mxGeometry x="1160" y="100" width="260" height="150" as="geometry"/>
        </mxCell>
        <mxCell id="ZJF8en1MvVYXbwIb_WXR-104" style="edgeStyle=orthogonalEdgeStyle;rounded=0;orthogonalLoop=1;jettySize=auto;html=1;exitX=0;exitY=0.5;exitDx=0;exitDy=0;entryX=1;entryY=0.5;entryDx=0;entryDy=0;" edge="1" parent="1" source="ZJF8en1MvVYXbwIb_WXR-102" target="ZJF8en1MvVYXbwIb_WXR-19">
          <mxGeometry relative="1" as="geometry"/>
        </mxCell>
        <mxCell id="ZJF8en1MvVYXbwIb_WXR-105" value="发送心跳" style="text;html=1;align=center;verticalAlign=middle;resizable=0;points=[];labelBackgroundColor=#ffffff;" vertex="1" connectable="0" parent="ZJF8en1MvVYXbwIb_WXR-104">
          <mxGeometry x="-0.362" y="1" relative="1" as="geometry">
            <mxPoint as="offset"/>
          </mxGeometry>
        </mxCell>
        <mxCell id="ZJF8en1MvVYXbwIb_WXR-102" value="KafkaConsumer&lt;br&gt;(内存缓冲、工作线程、网络连接)&lt;br&gt;&lt;br&gt;&lt;br&gt;&lt;br&gt;" style="rounded=0;whiteSpace=wrap;html=1;" vertex="1" parent="1">
          <mxGeometry x="1190" y="140" width="200" height="100" as="geometry"/>
        </mxCell>
        <mxCell id="ZJF8en1MvVYXbwIb_WXR-107" style="edgeStyle=orthogonalEdgeStyle;rounded=0;orthogonalLoop=1;jettySize=auto;html=1;entryX=1;entryY=0.5;entryDx=0;entryDy=0;" edge="1" parent="1" source="ZJF8en1MvVYXbwIb_WXR-103" target="ZJF8en1MvVYXbwIb_WXR-106">
          <mxGeometry relative="1" as="geometry"/>
        </mxCell>
        <mxCell id="ZJF8en1MvVYXbwIb_WXR-108" value="提交offset" style="text;html=1;align=center;verticalAlign=middle;resizable=0;points=[];labelBackgroundColor=#ffffff;" vertex="1" connectable="0" parent="ZJF8en1MvVYXbwIb_WXR-107">
          <mxGeometry x="0.1635" y="1" relative="1" as="geometry">
            <mxPoint as="offset"/>
          </mxGeometry>
        </mxCell>
        <mxCell id="ZJF8en1MvVYXbwIb_WXR-103" value="offset数据结构" style="rounded=0;whiteSpace=wrap;html=1;" vertex="1" parent="1">
          <mxGeometry x="1235" y="200" width="110" height="30" as="geometry"/>
        </mxCell>
        <mxCell id="ZJF8en1MvVYXbwIb_WXR-106" value="__consumer_offsets&lt;br&gt;(50个分区)" style="rounded=0;whiteSpace=wrap;html=1;" vertex="1" parent="1">
          <mxGeometry x="840" y="10" width="120" height="50" as="geometry"/>
        </mxCell>
        <mxCell id="ZJF8en1MvVYXbwIb_WXR-109" style="edgeStyle=orthogonalEdgeStyle;rounded=0;orthogonalLoop=1;jettySize=auto;html=1;exitX=1;exitY=0.75;exitDx=0;exitDy=0;entryX=0;entryY=0.25;entryDx=0;entryDy=0;" edge="1" parent="1" source="ZJF8en1MvVYXbwIb_WXR-76" target="ZJF8en1MvVYXbwIb_WXR-102">
          <mxGeometry relative="1" as="geometry">
            <Array as="points">
              <mxPoint x="1020" y="365"/>
              <mxPoint x="1020" y="165"/>
            </Array>
          </mxGeometry>
        </mxCell>
        <mxCell id="ZJF8en1MvVYXbwIb_WXR-110" value="Text" style="text;html=1;align=center;verticalAlign=middle;resizable=0;points=[];labelBackgroundColor=#ffffff;" vertex="1" connectable="0" parent="ZJF8en1MvVYXbwIb_WXR-109">
          <mxGeometry x="-0.1471" y="49" relative="1" as="geometry">
            <mxPoint x="50" y="-49" as="offset"/>
          </mxGeometry>
        </mxCell>
        <mxCell id="ZJF8en1MvVYXbwIb_WXR-111" value="消费partition0数据" style="text;html=1;align=center;verticalAlign=middle;resizable=0;points=[];labelBackgroundColor=#ffffff;" vertex="1" connectable="0" parent="ZJF8en1MvVYXbwIb_WXR-109">
          <mxGeometry x="-0.5174" y="1" relative="1" as="geometry">
            <mxPoint as="offset"/>
          </mxGeometry>
        </mxCell>
        <mxCell id="ZJF8en1MvVYXbwIb_WXR-112" value="会员系统&lt;br&gt;&lt;br&gt;&lt;br&gt;&lt;br&gt;&lt;br&gt;&lt;br&gt;&lt;br&gt;&lt;br&gt;&lt;br&gt;" style="rounded=0;whiteSpace=wrap;html=1;" vertex="1" parent="1">
          <mxGeometry x="1160" y="385" width="260" height="150" as="geometry"/>
        </mxCell>
        <mxCell id="ZJF8en1MvVYXbwIb_WXR-115" style="edgeStyle=orthogonalEdgeStyle;rounded=0;orthogonalLoop=1;jettySize=auto;html=1;exitX=0;exitY=0.5;exitDx=0;exitDy=0;entryX=1;entryY=0.5;entryDx=0;entryDy=0;" edge="1" parent="1" source="ZJF8en1MvVYXbwIb_WXR-113" target="ZJF8en1MvVYXbwIb_WXR-49">
          <mxGeometry relative="1" as="geometry"/>
        </mxCell>
        <mxCell id="ZJF8en1MvVYXbwIb_WXR-116" value="JoinGroup请求&lt;br&gt;SyncGroup请求" style="text;html=1;align=center;verticalAlign=middle;resizable=0;points=[];labelBackgroundColor=#ffffff;" vertex="1" connectable="0" parent="ZJF8en1MvVYXbwIb_WXR-115">
          <mxGeometry x="0.0683" y="1" relative="1" as="geometry">
            <mxPoint as="offset"/>
          </mxGeometry>
        </mxCell>
        <mxCell id="ZJF8en1MvVYXbwIb_WXR-113" value="KafkaConsumer&lt;br&gt;(内存缓冲、工作线程、网络连接)" style="rounded=0;whiteSpace=wrap;html=1;" vertex="1" parent="1">
          <mxGeometry x="1190" y="445" width="200" height="80" as="geometry"/>
        </mxCell>
        <mxCell id="ZJF8en1MvVYXbwIb_WXR-117" style="edgeStyle=orthogonalEdgeStyle;rounded=0;orthogonalLoop=1;jettySize=auto;html=1;exitX=1;exitY=0.75;exitDx=0;exitDy=0;entryX=0.25;entryY=1;entryDx=0;entryDy=0;" edge="1" parent="1" source="ZJF8en1MvVYXbwIb_WXR-49" target="ZJF8en1MvVYXbwIb_WXR-113">
          <mxGeometry relative="1" as="geometry">
            <Array as="points">
              <mxPoint x="810" y="501"/>
              <mxPoint x="810" y="545"/>
              <mxPoint x="1240" y="545"/>
            </Array>
          </mxGeometry>
        </mxCell>
        <mxCell id="ZJF8en1MvVYXbwIb_WXR-118" value="选择leader" style="text;html=1;align=center;verticalAlign=middle;resizable=0;points=[];labelBackgroundColor=#ffffff;" vertex="1" connectable="0" parent="ZJF8en1MvVYXbwIb_WXR-117">
          <mxGeometry x="0.0399" y="-3" relative="1" as="geometry">
            <mxPoint x="1" as="offset"/>
          </mxGeometry>
        </mxCell>
        <mxCell id="ZJF8en1MvVYXbwIb_WXR-119" value="会员系统&lt;br&gt;&lt;br&gt;&lt;br&gt;&lt;br&gt;&lt;br&gt;&lt;br&gt;&lt;br&gt;&lt;br&gt;&lt;br&gt;" style="rounded=0;whiteSpace=wrap;html=1;" vertex="1" parent="1">
          <mxGeometry x="1160" y="640" width="260" height="150" as="geometry"/>
        </mxCell>
        <mxCell id="ZJF8en1MvVYXbwIb_WXR-120" value="KafkaConsumer&lt;br&gt;(内存缓冲、工作线程、网络连接)" style="rounded=0;whiteSpace=wrap;html=1;" vertex="1" parent="1">
          <mxGeometry x="1190" y="700" width="200" height="80" as="geometry"/>
        </mxCell>
        <mxCell id="ZJF8en1MvVYXbwIb_WXR-121" style="edgeStyle=orthogonalEdgeStyle;rounded=0;orthogonalLoop=1;jettySize=auto;html=1;exitX=0.75;exitY=1;exitDx=0;exitDy=0;entryX=0;entryY=0.5;entryDx=0;entryDy=0;" edge="1" parent="1" source="ZJF8en1MvVYXbwIb_WXR-49" target="ZJF8en1MvVYXbwIb_WXR-120">
          <mxGeometry relative="1" as="geometry">
            <Array as="points">
              <mxPoint x="800" y="517"/>
              <mxPoint x="800" y="740"/>
            </Array>
          </mxGeometry>
        </mxCell>
        <mxCell id="ZJF8en1MvVYXbwIb_WXR-122" value="下发分区方案" style="text;html=1;align=center;verticalAlign=middle;resizable=0;points=[];labelBackgroundColor=#ffffff;" vertex="1" connectable="0" parent="ZJF8en1MvVYXbwIb_WXR-121">
          <mxGeometry x="0.1756" y="-2" relative="1" as="geometry">
            <mxPoint x="93.18" y="-2.04" as="offset"/>
          </mxGeometry>
        </mxCell>
        <mxCell id="ZJF8en1MvVYXbwIb_WXR-139" value="1" style="rounded=0;whiteSpace=wrap;html=1;" vertex="1" parent="1">
          <mxGeometry x="840" y="400" width="10" height="20" as="geometry"/>
        </mxCell>
        <mxCell id="ZJF8en1MvVYXbwIb_WXR-140" value="" style="rounded=0;whiteSpace=wrap;html=1;" vertex="1" parent="1">
          <mxGeometry x="850" y="400" width="10" height="20" as="geometry"/>
        </mxCell>
        <mxCell id="ZJF8en1MvVYXbwIb_WXR-141" value="" style="rounded=0;whiteSpace=wrap;html=1;" vertex="1" parent="1">
          <mxGeometry x="860" y="400" width="10" height="20" as="geometry"/>
        </mxCell>
        <mxCell id="ZJF8en1MvVYXbwIb_WXR-142" value="" style="rounded=0;whiteSpace=wrap;html=1;" vertex="1" parent="1">
          <mxGeometry x="870" y="400" width="10" height="20" as="geometry"/>
        </mxCell>
        <mxCell id="ZJF8en1MvVYXbwIb_WXR-143" value="" style="rounded=0;whiteSpace=wrap;html=1;" vertex="1" parent="1">
          <mxGeometry x="880" y="400" width="10" height="20" as="geometry"/>
        </mxCell>
        <mxCell id="ZJF8en1MvVYXbwIb_WXR-147" style="edgeStyle=orthogonalEdgeStyle;rounded=0;orthogonalLoop=1;jettySize=auto;html=1;entryX=0;entryY=0.5;entryDx=0;entryDy=0;" edge="1" parent="1" source="ZJF8en1MvVYXbwIb_WXR-144" target="ZJF8en1MvVYXbwIb_WXR-139">
          <mxGeometry relative="1" as="geometry">
            <Array as="points">
              <mxPoint x="820" y="410"/>
            </Array>
          </mxGeometry>
        </mxCell>
        <mxCell id="ZJF8en1MvVYXbwIb_WXR-144" value="HW" style="rounded=0;whiteSpace=wrap;html=1;" vertex="1" parent="1">
          <mxGeometry x="805" y="440" width="30" height="20" as="geometry"/>
        </mxCell>
        <mxCell id="ZJF8en1MvVYXbwIb_WXR-148" style="edgeStyle=orthogonalEdgeStyle;rounded=0;orthogonalLoop=1;jettySize=auto;html=1;entryX=0.5;entryY=1;entryDx=0;entryDy=0;" edge="1" parent="1" source="ZJF8en1MvVYXbwIb_WXR-145" target="ZJF8en1MvVYXbwIb_WXR-141">
          <mxGeometry relative="1" as="geometry"/>
        </mxCell>
        <mxCell id="ZJF8en1MvVYXbwIb_WXR-145" value="LEO" style="rounded=0;whiteSpace=wrap;html=1;" vertex="1" parent="1">
          <mxGeometry x="850" y="440" width="30" height="20" as="geometry"/>
        </mxCell>
        <mxCell id="ZJF8en1MvVYXbwIb_WXR-151" value="leader epoch&lt;br&gt;&amp;lt;1, 1&amp;gt;" style="rounded=0;whiteSpace=wrap;html=1;" vertex="1" parent="1">
          <mxGeometry x="970" y="390" width="100" height="40" as="geometry"/>
        </mxCell>
      </root>
    </mxGraphModel>
  </diagram>
</mxfile>
